# Blender v2.79 (sub 0) OBJ File: 'body.blend'
# www.blender.org
mtllib body.mtl
o body_vao
v -2.000000 -1.000000 1.000000
v -2.000000 1.000000 1.000000
v -2.000000 1.000000 -1.000000
v -2.000000 -1.000000 -1.000000
v 2.000000 -1.000000 -1.000000
v 2.000000 -1.000000 1.000000
v 2.000000 1.000000 1.000000
v -1.696028 1.000000 0.848014
v -1.696028 1.000000 -0.848014
v 1.696028 1.000000 -0.848014
v 2.000000 1.000000 -1.000000
v 1.696028 1.000000 0.848014
v -1.696028 -0.848014 0.848014
v -1.696028 -0.848014 -0.848014
v 1.696028 -0.848014 -0.848014
v 1.696028 -0.848014 0.848014
vn -1.0000 0.0000 0.0000
vn 0.0000 -1.0000 0.0000
vn 0.0000 0.0000 1.0000
vn 0.0000 1.0000 0.0000
vn -0.0000 0.0000 -1.0000
vn 1.0000 0.0000 0.0000
usemtl material
s off
f 2//1 4//1 1//1
f 5//2 1//2 4//2
f 7//3 1//3 6//3
f 9//4 11//4 3//4
f 7//4 10//4 12//4
f 3//5 5//5 4//5
f 11//6 6//6 5//6
f 8//6 14//6 9//6
f 9//3 15//3 10//3
f 13//4 15//4 14//4
f 12//5 13//5 8//5
f 10//1 16//1 12//1
f 2//1 3//1 4//1
f 5//2 6//2 1//2
f 7//3 2//3 1//3
f 3//4 2//4 8//4
f 9//4 10//4 11//4
f 3//4 8//4 9//4
f 8//4 2//4 7//4
f 7//4 11//4 10//4
f 12//4 8//4 7//4
f 3//5 11//5 5//5
f 11//6 7//6 6//6
f 8//6 13//6 14//6
f 9//3 14//3 15//3
f 13//4 16//4 15//4
f 12//5 16//5 13//5
f 10//1 15//1 16//1
