# Blender v2.79 (sub 0) OBJ File: ''
# www.blender.org
mtllib track.mtl
o Head_vao.001
v 1.466342 -0.112676 -0.800000
v -0.983445 -0.268748 -0.784628
v -0.983445 -0.112676 -0.800000
v 1.466342 -0.268748 -0.784628
v -0.983445 -0.418823 -0.739104
v 1.466342 -0.418823 -0.739104
v -0.983445 -0.557132 -0.665176
v 1.466342 -0.557132 -0.665176
v -0.983445 -0.678361 -0.565685
v 1.466342 -0.678362 -0.565685
v -0.983445 -0.777852 -0.444456
v 1.466342 -0.777852 -0.444456
v -0.983445 -0.851780 -0.306147
v 1.466342 -0.851780 -0.306147
v -0.983445 -0.897304 -0.156072
v 1.466342 -0.897304 -0.156072
v -0.983445 -0.912676 0.000000
v 1.466342 -0.912676 -0.000000
v -0.983445 -0.897304 0.156072
v 1.466342 -0.897304 0.156072
v -0.983445 -0.851780 0.306147
v 1.466342 -0.851780 0.306147
v -0.983445 -0.777852 0.444456
v 1.466342 -0.777852 0.444456
v -0.983445 -0.678361 0.565685
v 1.466342 -0.678362 0.565685
v -0.983445 -0.557132 0.665176
v 1.466342 -0.557132 0.665176
v -0.983445 -0.418823 0.739104
v 1.466342 -0.418823 0.739104
v -0.983445 -0.268748 0.784628
v 1.466342 -0.268748 0.784628
v -0.983445 -0.112676 0.800000
v 1.466342 -0.112676 0.800000
v -0.983445 0.043397 0.784628
v 1.466342 0.043396 0.784628
v -0.983445 0.193471 0.739104
v 1.466342 0.193471 0.739104
v -0.983445 0.331781 0.665176
v 1.466342 0.331780 0.665176
v -0.983445 0.453010 0.565685
v 1.466342 0.453010 0.565685
v -0.983445 0.552500 0.444456
v 1.466342 0.552500 0.444456
v -0.983445 0.626428 0.306146
v 1.466342 0.626428 0.306146
v -0.983445 0.671952 0.156072
v 1.466342 0.671952 0.156072
v -0.983445 0.687324 -0.000001
v 1.466342 0.687324 -0.000001
v -0.983445 0.671952 -0.156073
v 1.466342 0.671952 -0.156073
v -0.983445 0.626427 -0.306148
v 1.466342 0.626427 -0.306148
v -0.983445 0.552499 -0.444457
v 1.466342 0.552499 -0.444457
v -0.983445 0.453009 -0.565686
v 1.466342 0.453009 -0.565686
v -0.983445 0.331779 -0.665176
v 1.466342 0.331779 -0.665176
v -0.983445 0.193470 -0.739104
v 1.466342 0.193470 -0.739104
v -0.983445 0.043395 -0.784629
v 1.466342 0.043395 -0.784629
vn -0.0000 -0.0980 -0.9952
vn -0.0000 -0.2903 -0.9569
vn -0.0000 -0.4714 -0.8819
vn -0.0000 -0.6344 -0.7730
vn -0.0000 -0.7730 -0.6344
vn -0.0000 -0.8819 -0.4714
vn -0.0000 -0.9569 -0.2903
vn -0.0000 -0.9952 -0.0980
vn -0.0000 -0.9952 0.0980
vn -0.0000 -0.9569 0.2903
vn -0.0000 -0.8819 0.4714
vn -0.0000 -0.7730 0.6344
vn -0.0000 -0.6344 0.7730
vn -0.0000 -0.4714 0.8819
vn 0.0000 -0.2903 0.9569
vn -0.0000 -0.0980 0.9952
vn 0.0000 0.0980 0.9952
vn 0.0000 0.2903 0.9569
vn 0.0000 0.4714 0.8819
vn 0.0000 0.6344 0.7730
vn 0.0000 0.7730 0.6344
vn 0.0000 0.8819 0.4714
vn 0.0000 0.9569 0.2903
vn 0.0000 0.9952 0.0980
vn 0.0000 0.9952 -0.0980
vn 0.0000 0.9569 -0.2903
vn 0.0000 0.8819 -0.4714
vn 0.0000 0.7730 -0.6344
vn 0.0000 0.6344 -0.7730
vn 0.0000 0.4714 -0.8819
vn 1.0000 -0.0000 0.0000
vn -0.0000 0.2903 -0.9569
vn 0.0000 0.0980 -0.9952
vn -1.0000 -0.0000 0.0000
usemtl Material.004
s 1
f 1//1 2//1 3//1
f 4//2 5//2 2//2
f 6//3 7//3 5//3
f 8//4 9//4 7//4
f 10//5 11//5 9//5
f 12//6 13//6 11//6
f 14//7 15//7 13//7
f 16//8 17//8 15//8
f 18//9 19//9 17//9
f 20//10 21//10 19//10
f 22//11 23//11 21//11
f 24//12 25//12 23//12
f 26//13 27//13 25//13
f 28//14 29//14 27//14
f 30//15 31//15 29//15
f 32//16 33//16 31//16
f 34//17 35//17 33//17
f 36//18 37//18 35//18
f 38//19 39//19 37//19
f 40//20 41//20 39//20
f 42//21 43//21 41//21
f 44//22 45//22 43//22
f 46//23 47//23 45//23
f 48//24 49//24 47//24
f 50//25 51//25 49//25
f 52//26 53//26 51//26
f 54//27 55//27 53//27
f 56//28 57//28 55//28
f 58//29 59//29 57//29
f 60//30 61//30 59//30
f 38//31 22//31 6//31
f 62//32 63//32 61//32
f 64//33 3//33 63//33
f 15//34 31//34 47//34
f 1//1 4//1 2//1
f 4//2 6//2 5//2
f 6//3 8//3 7//3
f 8//4 10//4 9//4
f 10//5 12//5 11//5
f 12//6 14//6 13//6
f 14//7 16//7 15//7
f 16//8 18//8 17//8
f 18//9 20//9 19//9
f 20//10 22//10 21//10
f 22//11 24//11 23//11
f 24//12 26//12 25//12
f 26//13 28//13 27//13
f 28//14 30//14 29//14
f 30//15 32//15 31//15
f 32//16 34//16 33//16
f 34//17 36//17 35//17
f 36//18 38//18 37//18
f 38//19 40//19 39//19
f 40//20 42//20 41//20
f 42//21 44//21 43//21
f 44//22 46//22 45//22
f 46//23 48//23 47//23
f 48//24 50//24 49//24
f 50//25 52//25 51//25
f 52//26 54//26 53//26
f 54//27 56//27 55//27
f 56//28 58//28 57//28
f 58//29 60//29 59//29
f 60//30 62//30 61//30
f 6//31 4//31 1//31
f 1//31 64//31 6//31
f 64//31 62//31 6//31
f 62//31 60//31 58//31
f 58//31 56//31 54//31
f 54//31 52//31 50//31
f 50//31 48//31 54//31
f 48//31 46//31 54//31
f 46//31 44//31 38//31
f 44//31 42//31 38//31
f 42//31 40//31 38//31
f 38//31 36//31 34//31
f 34//31 32//31 38//31
f 32//31 30//31 38//31
f 30//31 28//31 26//31
f 26//31 24//31 22//31
f 22//31 20//31 18//31
f 18//31 16//31 14//31
f 14//31 12//31 10//31
f 10//31 8//31 14//31
f 8//31 6//31 14//31
f 62//31 58//31 6//31
f 58//31 54//31 6//31
f 30//31 26//31 38//31
f 26//31 22//31 38//31
f 22//31 18//31 6//31
f 18//31 14//31 6//31
f 54//31 46//31 38//31
f 6//31 54//31 38//31
f 62//32 64//32 63//32
f 64//33 1//33 3//33
f 63//34 3//34 2//34
f 2//34 5//34 7//34
f 7//34 9//34 15//34
f 9//34 11//34 15//34
f 11//34 13//34 15//34
f 15//34 17//34 19//34
f 19//34 21//34 15//34
f 21//34 23//34 15//34
f 23//34 25//34 31//34
f 25//34 27//34 31//34
f 27//34 29//34 31//34
f 31//34 33//34 35//34
f 35//34 37//34 31//34
f 37//34 39//34 31//34
f 39//34 41//34 47//34
f 41//34 43//34 47//34
f 43//34 45//34 47//34
f 47//34 49//34 51//34
f 51//34 53//34 55//34
f 55//34 57//34 63//34
f 57//34 59//34 63//34
f 59//34 61//34 63//34
f 63//34 2//34 7//34
f 47//34 51//34 63//34
f 51//34 55//34 63//34
f 63//34 7//34 15//34
f 15//34 23//34 31//34
f 31//34 39//34 47//34
f 63//34 15//34 47//34
o Wheel_vao.002
v 1.416668 -0.849602 1.151038
v -1.959316 -0.849602 -1.151038
v 1.416668 -0.849602 -1.151038
v -1.959316 -0.141268 -1.151038
v 1.057511 -0.141268 1.151039
v 1.057513 -0.141268 -1.151037
v -1.959317 -0.849602 1.151038
v -1.959317 -0.141268 1.151038
vn -0.0000 -1.0000 -0.0000
vn 0.0000 1.0000 0.0000
vn 0.8919 0.4522 0.0000
vn 0.0000 -0.0000 1.0000
vn -1.0000 0.0000 -0.0000
vn 0.0000 0.0000 -1.0000
usemtl Material.002
s 1
f 65//35 66//35 67//35
f 68//36 69//36 70//36
f 70//37 65//37 67//37
f 69//38 71//38 65//38
f 71//39 68//39 66//39
f 70//40 66//40 68//40
f 65//35 71//35 66//35
f 68//36 72//36 69//36
f 70//37 69//37 65//37
f 69//38 72//38 71//38
f 71//39 72//39 68//39
f 70//40 67//40 66//40
o Ligjt_vao.003
v 1.549903 0.693568 -0.094036
v 1.261942 0.675222 -0.092229
v 1.261942 0.693568 -0.094036
v 1.549903 0.675222 -0.092229
v 1.261942 0.657582 -0.086878
v 1.549903 0.657582 -0.086878
v 1.261942 0.641324 -0.078188
v 1.549903 0.641324 -0.078188
v 1.261942 0.627074 -0.066494
v 1.549903 0.627074 -0.066494
v 1.261942 0.615380 -0.052244
v 1.549903 0.615380 -0.052244
v 1.261942 0.606690 -0.035986
v 1.549903 0.606690 -0.035986
v 1.261942 0.601339 -0.018346
v 1.549903 0.601338 -0.018346
v 1.261942 0.599532 -0.000000
v 1.549903 0.599532 -0.000000
v 1.261942 0.601339 0.018346
v 1.549903 0.601338 0.018346
v 1.261942 0.606690 0.035986
v 1.549903 0.606690 0.035986
v 1.261942 0.615380 0.052244
v 1.549903 0.615380 0.052244
v 1.261942 0.627074 0.066494
v 1.549903 0.627074 0.066494
v 1.261942 0.641324 0.078188
v 1.549903 0.641324 0.078188
v 1.261942 0.657582 0.086878
v 1.549903 0.657582 0.086878
v 1.261942 0.675222 0.092229
v 1.549903 0.675222 0.092229
v 1.261942 0.693568 0.094036
v 1.549903 0.693568 0.094036
v 1.261942 0.711913 0.092229
v 1.549903 0.711913 0.092229
v 1.261942 0.729554 0.086878
v 1.549903 0.729554 0.086878
v 1.261942 0.745812 0.078188
v 1.549903 0.745811 0.078188
v 1.261942 0.760061 0.066494
v 1.549903 0.760061 0.066494
v 1.261942 0.771756 0.052244
v 1.549903 0.771756 0.052244
v 1.261942 0.780446 0.035986
v 1.549903 0.780446 0.035986
v 1.261942 0.785797 0.018345
v 1.549903 0.785797 0.018345
v 1.261942 0.787604 -0.000000
v 1.549903 0.787604 -0.000000
v 1.261942 0.785797 -0.018346
v 1.549903 0.785797 -0.018346
v 1.261942 0.780446 -0.035986
v 1.549903 0.780446 -0.035986
v 1.261942 0.771756 -0.052244
v 1.549903 0.771756 -0.052244
v 1.261942 0.760061 -0.066494
v 1.549903 0.760061 -0.066494
v 1.261942 0.745811 -0.078188
v 1.549903 0.745811 -0.078188
v 1.261942 0.729554 -0.086878
v 1.549903 0.729554 -0.086878
v 1.261942 0.711913 -0.092229
v 1.549903 0.711913 -0.092229
vn -0.0000 -0.0980 -0.9952
vn -0.0000 -0.2903 -0.9569
vn -0.0000 -0.4714 -0.8819
vn -0.0000 -0.6344 -0.7730
vn -0.0000 -0.7730 -0.6344
vn -0.0000 -0.8819 -0.4714
vn -0.0000 -0.9569 -0.2903
vn -0.0000 -0.9952 -0.0980
vn -0.0000 -0.9952 0.0980
vn -0.0000 -0.9569 0.2903
vn -0.0000 -0.8819 0.4714
vn -0.0000 -0.7730 0.6344
vn -0.0000 -0.6344 0.7730
vn -0.0000 -0.4714 0.8819
vn 0.0000 -0.2903 0.9569
vn -0.0000 -0.0980 0.9952
vn 0.0000 0.0980 0.9952
vn 0.0000 0.2903 0.9569
vn 0.0000 0.4714 0.8819
vn 0.0000 0.6344 0.7730
vn 0.0000 0.7730 0.6344
vn 0.0000 0.8819 0.4714
vn 0.0000 0.9569 0.2903
vn 0.0000 0.9952 0.0980
vn 0.0000 0.9952 -0.0980
vn 0.0000 0.9569 -0.2903
vn 0.0000 0.8819 -0.4714
vn 0.0000 0.7730 -0.6344
vn 0.0000 0.6344 -0.7730
vn 0.0000 0.4714 -0.8819
vn 1.0000 -0.0000 0.0000
vn 0.0000 0.2903 -0.9569
vn -0.0000 0.0980 -0.9952
vn -1.0000 0.0000 0.0000
vn 1.0000 -0.0001 0.0000
vn 1.0000 0.0001 0.0000
vn -1.0000 0.0001 0.0000
vn -1.0000 -0.0001 0.0000
usemtl Material.007
s 1
f 73//41 74//41 75//41
f 76//42 77//42 74//42
f 78//43 79//43 77//43
f 80//44 81//44 79//44
f 82//45 83//45 81//45
f 84//46 85//46 83//46
f 86//47 87//47 85//47
f 88//48 89//48 87//48
f 90//49 91//49 89//49
f 92//50 93//50 91//50
f 94//51 95//51 93//51
f 96//52 97//52 95//52
f 98//53 99//53 97//53
f 100//54 101//54 99//54
f 102//55 103//55 101//55
f 104//56 105//56 103//56
f 106//57 107//57 105//57
f 108//58 109//58 107//58
f 110//59 111//59 109//59
f 112//60 113//60 111//60
f 114//61 115//61 113//61
f 116//62 117//62 115//62
f 118//63 119//63 117//63
f 120//64 121//64 119//64
f 122//65 123//65 121//65
f 124//66 125//66 123//66
f 126//67 127//67 125//67
f 128//68 129//68 127//68
f 130//69 131//69 129//69
f 132//70 133//70 131//70
f 110//71 94//71 78//71
f 134//72 135//72 133//72
f 136//73 75//73 135//73
f 87//74 103//74 119//74
f 73//41 76//41 74//41
f 76//42 78//42 77//42
f 78//43 80//43 79//43
f 80//44 82//44 81//44
f 82//45 84//45 83//45
f 84//46 86//46 85//46
f 86//47 88//47 87//47
f 88//48 90//48 89//48
f 90//49 92//49 91//49
f 92//50 94//50 93//50
f 94//51 96//51 95//51
f 96//52 98//52 97//52
f 98//53 100//53 99//53
f 100//54 102//54 101//54
f 102//55 104//55 103//55
f 104//56 106//56 105//56
f 106//57 108//57 107//57
f 108//58 110//58 109//58
f 110//59 112//59 111//59
f 112//60 114//60 113//60
f 114//61 116//61 115//61
f 116//62 118//62 117//62
f 118//63 120//63 119//63
f 120//64 122//64 121//64
f 122//65 124//65 123//65
f 124//66 126//66 125//66
f 126//67 128//67 127//67
f 128//68 130//68 129//68
f 130//69 132//69 131//69
f 132//70 134//70 133//70
f 78//71 76//71 73//71
f 73//71 136//71 78//71
f 136//71 134//71 78//71
f 134//71 132//71 130//71
f 130//71 128//75 126//71
f 126//71 124//75 122//75
f 122//75 120//71 126//71
f 120//71 118//71 126//71
f 118//71 116//71 110//71
f 116//71 114//71 110//71
f 114//71 112//71 110//71
f 110//71 108//71 106//71
f 106//71 104//71 110//71
f 104//71 102//71 110//71
f 102//71 100//71 98//71
f 98//71 96//76 94//71
f 94//71 92//76 90//71
f 90//71 88//76 86//71
f 86//71 84//76 82//71
f 82//71 80//71 86//71
f 80//71 78//71 86//71
f 134//71 130//71 78//71
f 130//71 126//71 78//71
f 102//71 98//71 110//71
f 98//71 94//71 110//71
f 94//71 90//71 78//71
f 90//71 86//71 78//71
f 126//71 118//71 110//71
f 78//71 126//71 110//71
f 134//72 136//72 135//72
f 136//73 73//73 75//73
f 135//74 75//74 74//74
f 74//74 77//74 79//74
f 79//74 81//74 87//74
f 81//74 83//74 87//74
f 83//74 85//77 87//74
f 87//74 89//74 91//74
f 91//74 93//74 87//74
f 93//74 95//74 87//74
f 95//74 97//74 103//74
f 97//74 99//74 103//74
f 99//74 101//74 103//74
f 103//74 105//74 107//74
f 107//74 109//74 103//74
f 109//74 111//74 103//74
f 111//74 113//74 119//74
f 113//74 115//74 119//74
f 115//74 117//78 119//74
f 119//74 121//78 123//74
f 123//74 125//78 127//74
f 127//74 129//74 135//74
f 129//74 131//74 135//74
f 131//74 133//74 135//74
f 135//74 74//74 79//74
f 119//74 123//74 135//74
f 123//74 127//74 135//74
f 135//74 79//74 87//74
f 87//74 95//74 103//74
f 103//74 111//74 119//74
f 135//74 87//74 119//74
o Cube.001
v 2.000000 -1.000000 1.000000
v -1.999999 -1.000000 -1.000000
v 2.000000 -1.000000 -1.000000
v -2.000000 0.000000 -1.000000
v 1.492956 -0.000000 1.000001
v 1.492959 -0.000000 -0.999999
v -2.000000 -1.000000 1.000000
v -2.000001 0.000000 1.000000
vn -0.0000 -1.0000 0.0000
vn 0.0000 1.0000 0.0000
vn 0.8919 0.4522 0.0000
vn 0.0000 -0.0000 1.0000
vn -1.0000 -0.0000 -0.0000
vn 0.0000 0.0000 -1.0000
usemtl Material.001
s 1
f 137//79 138//79 139//79
f 140//80 141//80 142//80
f 142//81 137//81 139//81
f 141//82 143//82 137//82
f 143//83 140//83 138//83
f 142//84 138//84 140//84
f 137//79 143//79 138//79
f 140//80 144//80 141//80
f 142//81 141//81 137//81
f 141//82 144//82 143//82
f 143//83 144//83 140//83
f 142//84 139//84 138//84
o Body_vao
v -1.960295 0.936821 0.800000
v -1.960295 -0.663179 -0.800000
v -1.960295 -0.663179 0.800000
v -1.960295 0.936821 -0.800000
v -0.360295 -0.663179 -0.800000
v -0.360295 0.936821 -0.800000
v -0.360295 -0.663179 0.800000
v -0.360295 0.936821 0.800000
vn -1.0000 0.0000 0.0000
vn -0.0000 0.0000 -1.0000
vn 1.0000 -0.0000 -0.0000
vn 0.0000 -0.0000 1.0000
vn -0.0000 -1.0000 0.0000
vn 0.0000 1.0000 -0.0000
usemtl Material.005
s 1
f 145//85 146//85 147//85
f 148//86 149//86 146//86
f 150//87 151//87 149//87
f 152//88 147//88 151//88
f 149//89 147//89 146//89
f 148//90 152//90 150//90
f 145//85 148//85 146//85
f 148//86 150//86 149//86
f 150//87 152//87 151//87
f 152//88 145//88 147//88
f 149//89 151//89 147//89
f 148//90 145//90 152//90
o Chimney_vao.004
v 0.732918 1.395334 -0.244359
v 0.780590 -0.014456 -0.239664
v 0.732918 -0.014456 -0.244359
v 0.780590 1.395334 -0.239664
v 0.826430 -0.014456 -0.225759
v 0.826430 1.395334 -0.225759
v 0.868676 -0.014456 -0.203177
v 0.868676 1.395334 -0.203177
v 0.905706 -0.014456 -0.172788
v 0.905706 1.395334 -0.172788
v 0.936095 -0.014456 -0.135759
v 0.936095 1.395334 -0.135759
v 0.958676 -0.014456 -0.093512
v 0.958676 1.395334 -0.093512
v 0.972582 -0.014456 -0.047672
v 0.972582 1.395334 -0.047672
v 0.977277 -0.014456 -0.000000
v 0.977277 1.395334 -0.000000
v 0.972582 -0.014456 0.047672
v 0.972582 1.395334 0.047672
v 0.958676 -0.014456 0.093512
v 0.958676 1.395334 0.093512
v 0.936095 -0.014456 0.135759
v 0.936095 1.395334 0.135759
v 0.905706 -0.014456 0.172788
v 0.905706 1.395334 0.172788
v 0.868676 -0.014456 0.203177
v 0.868676 1.395334 0.203177
v 0.826430 -0.014456 0.225759
v 0.826430 1.395334 0.225759
v 0.780590 -0.014456 0.239664
v 0.780590 1.395334 0.239664
v 0.732917 -0.014456 0.244359
v 0.732917 1.395334 0.244359
v 0.685245 -0.014456 0.239664
v 0.685245 1.395334 0.239664
v 0.639405 -0.014456 0.225759
v 0.639405 1.395334 0.225759
v 0.597159 -0.014456 0.203177
v 0.597159 1.395334 0.203177
v 0.560129 -0.014456 0.172788
v 0.560129 1.395334 0.172788
v 0.529740 -0.014456 0.135759
v 0.529740 1.395334 0.135759
v 0.507159 -0.014456 0.093512
v 0.507159 1.395334 0.093512
v 0.493254 -0.014456 0.047672
v 0.493254 1.395334 0.047672
v 0.488558 -0.014456 -0.000000
v 0.488558 1.395334 -0.000000
v 0.493254 -0.014456 -0.047672
v 0.493254 1.395334 -0.047672
v 0.507159 -0.014456 -0.093513
v 0.507159 1.395334 -0.093513
v 0.529740 -0.014456 -0.135759
v 0.529740 1.395334 -0.135759
v 0.560130 -0.014456 -0.172788
v 0.560130 1.395334 -0.172788
v 0.597159 -0.014456 -0.203178
v 0.597159 1.395334 -0.203178
v 0.639406 -0.014456 -0.225759
v 0.639406 1.395334 -0.225759
v 0.685246 -0.014456 -0.239664
v 0.685246 1.395334 -0.239664
vn 0.0980 -0.0000 -0.9952
vn 0.2903 -0.0000 -0.9569
vn 0.4714 -0.0000 -0.8819
vn 0.6344 -0.0000 -0.7730
vn 0.7730 -0.0000 -0.6344
vn 0.8819 -0.0000 -0.4714
vn 0.9569 -0.0000 -0.2903
vn 0.9952 -0.0000 -0.0980
vn 0.9952 -0.0000 0.0980
vn 0.9569 -0.0000 0.2903
vn 0.8819 -0.0000 0.4714
vn 0.7730 -0.0000 0.6344
vn 0.6344 -0.0000 0.7730
vn 0.4714 -0.0000 0.8819
vn 0.2903 -0.0000 0.9569
vn 0.0980 -0.0000 0.9952
vn -0.0980 0.0000 0.9952
vn -0.2903 0.0000 0.9569
vn -0.4714 0.0000 0.8819
vn -0.6344 0.0000 0.7730
vn -0.7730 0.0000 0.6344
vn -0.8819 0.0000 0.4714
vn -0.9569 0.0000 0.2903
vn -0.9952 0.0000 0.0980
vn -0.9952 0.0000 -0.0980
vn -0.9569 0.0000 -0.2903
vn -0.8819 0.0000 -0.4714
vn -0.7730 0.0000 -0.6344
vn -0.6344 0.0000 -0.7730
vn -0.4714 0.0000 -0.8819
vn 0.0000 1.0000 -0.0000
vn -0.2903 0.0000 -0.9569
vn -0.0980 0.0000 -0.9952
vn -0.0000 -1.0000 -0.0000
usemtl Material.006
s 1
f 153//91 154//91 155//91
f 156//92 157//92 154//92
f 158//93 159//93 157//93
f 160//94 161//94 159//94
f 162//95 163//95 161//95
f 164//96 165//96 163//96
f 166//97 167//97 165//97
f 168//98 169//98 167//98
f 170//99 171//99 169//99
f 172//100 173//100 171//100
f 174//101 175//101 173//101
f 176//102 177//102 175//102
f 178//103 179//103 177//103
f 180//104 181//104 179//104
f 182//105 183//105 181//105
f 184//106 185//106 183//106
f 186//107 187//107 185//107
f 188//108 189//108 187//108
f 190//109 191//109 189//109
f 192//110 193//110 191//110
f 194//111 195//111 193//111
f 196//112 197//112 195//112
f 198//113 199//113 197//113
f 200//114 201//114 199//114
f 202//115 203//115 201//115
f 204//116 205//116 203//116
f 206//117 207//117 205//117
f 208//118 209//118 207//118
f 210//119 211//119 209//119
f 212//120 213//120 211//120
f 190//121 174//121 158//121
f 214//122 215//122 213//122
f 216//123 155//123 215//123
f 167//124 183//124 199//124
f 153//91 156//91 154//91
f 156//92 158//92 157//92
f 158//93 160//93 159//93
f 160//94 162//94 161//94
f 162//95 164//95 163//95
f 164//96 166//96 165//96
f 166//97 168//97 167//97
f 168//98 170//98 169//98
f 170//99 172//99 171//99
f 172//100 174//100 173//100
f 174//101 176//101 175//101
f 176//102 178//102 177//102
f 178//103 180//103 179//103
f 180//104 182//104 181//104
f 182//105 184//105 183//105
f 184//106 186//106 185//106
f 186//107 188//107 187//107
f 188//108 190//108 189//108
f 190//109 192//109 191//109
f 192//110 194//110 193//110
f 194//111 196//111 195//111
f 196//112 198//112 197//112
f 198//113 200//113 199//113
f 200//114 202//114 201//114
f 202//115 204//115 203//115
f 204//116 206//116 205//116
f 206//117 208//117 207//117
f 208//118 210//118 209//118
f 210//119 212//119 211//119
f 212//120 214//120 213//120
f 158//121 156//121 153//121
f 153//121 216//121 158//121
f 216//121 214//121 158//121
f 214//121 212//121 210//121
f 210//121 208//121 206//121
f 206//121 204//121 202//121
f 202//121 200//121 206//121
f 200//121 198//121 206//121
f 198//121 196//121 190//121
f 196//121 194//121 190//121
f 194//121 192//121 190//121
f 190//121 188//121 186//121
f 186//121 184//121 190//121
f 184//121 182//121 190//121
f 182//121 180//121 178//121
f 178//121 176//121 174//121
f 174//121 172//121 170//121
f 170//121 168//121 166//121
f 166//121 164//121 162//121
f 162//121 160//121 166//121
f 160//121 158//121 166//121
f 214//121 210//121 158//121
f 210//121 206//121 158//121
f 182//121 178//121 190//121
f 178//121 174//121 190//121
f 174//121 170//121 158//121
f 170//121 166//121 158//121
f 206//121 198//121 190//121
f 158//121 206//121 190//121
f 214//122 216//122 215//122
f 216//123 153//123 155//123
f 215//124 155//124 154//124
f 154//124 157//124 159//124
f 159//124 161//124 167//124
f 161//124 163//124 167//124
f 163//124 165//124 167//124
f 167//124 169//124 171//124
f 171//124 173//124 167//124
f 173//124 175//124 167//124
f 175//124 177//124 183//124
f 177//124 179//124 183//124
f 179//124 181//124 183//124
f 183//124 185//124 187//124
f 187//124 189//124 183//124
f 189//124 191//124 183//124
f 191//124 193//124 199//124
f 193//124 195//124 199//124
f 195//124 197//124 199//124
f 199//124 201//124 203//124
f 203//124 205//124 207//124
f 207//124 209//124 215//124
f 209//124 211//124 215//124
f 211//124 213//124 215//124
f 215//124 154//124 159//124
f 199//124 203//124 215//124
f 203//124 207//124 215//124
f 215//124 159//124 167//124
f 167//124 175//124 183//124
f 183//124 191//124 199//124
f 215//124 167//124 199//124
